<svg width="360" height="529" viewBox="0 0 360 529" fill="none" xmlns="http://www.w3.org/2000/svg">
<path opacity="0.3" d="M251 12.9999C328.6 -23.8001 411.333 28.3333 443 58.9999L398 696H-20C-42.6666 545 -51 113.6 9 128C84 146 154 58.9999 251 12.9999Z" fill="url(#paint0_linear_145_267)"/>
<path opacity="0.5" d="M264 233C388.8 227.4 431.333 288.667 437 320V327L403 657L-15 651V198C26 212 139.2 238.6 264 233Z" fill="url(#paint1_linear_145_267)"/>
<path d="M253.5 308.5C286.7 263.7 256.333 240.667 237 235H232C232 235 286 249.5 247 305.5C232 327.039 11 475.667 25.5 526.5C44.6666 551.833 147.6 598.7 122 533.5C89.9999 452 212 364.5 253.5 308.5Z" fill="url(#paint2_linear_145_267)"/>
<defs>
<linearGradient id="paint0_linear_145_267" x1="197.456" y1="0.342773" x2="197.456" y2="696" gradientUnits="userSpaceOnUse">
<stop stop-color="#B4B4B4"/>
<stop offset="1" stop-color="white" stop-opacity="0"/>
</linearGradient>
<linearGradient id="paint1_linear_145_267" x1="211" y1="198" x2="211" y2="657" gradientUnits="userSpaceOnUse">
<stop stop-color="#C1C1C1"/>
<stop offset="1" stop-color="white" stop-opacity="0"/>
</linearGradient>
<linearGradient id="paint2_linear_145_267" x1="146.553" y1="235" x2="146.553" y2="566.617" gradientUnits="userSpaceOnUse">
<stop stop-color="white"/>
<stop offset="1" stop-color="white" stop-opacity="0"/>
</linearGradient>
</defs>
</svg>
